# xmcd
#
# Track frame offsets: 
#        150
#        10068
#        25228
#        40538
#        58450
#        71313
#        84868
#        95410
#        110115
#        124068
#        136825
#        150710
#
# Disc length: 2152 seconds
#
# Revision: 5
# Processed by: cddbd v1.5.2PL0 Copyright (c) Steve Scherf et al.
# Submitted via: ExactAudioCopy v0.95b4
#
DISCID=9308660c
DTITLE=Chet Atkins - Chet Atkins in Hollywood (Xrcd2)
DYEAR=1959
DGENRE=Country - Pop
TTITLE0=Armen's Theme
TTITLE1=Let it Be Me
TTITLE2=Theme from "Picnic"
TTITLE3=Theme from a Dream
TTITLE4=Estrellita
TTITLE5=Jitterbug Waltz
TTITLE6=Little Old Lady
TTITLE7=The Terry Theme from "Limelight"
TTITLE8=The Three Bells
TTITLE9=Santa Lucia
TTITLE10=Greensleeves
TTITLE11=Meet Mister Callaghan
EXTD=
EXTT0=
EXTT1=
EXTT2=
EXTT3=
EXTT4=
EXTT5=
EXTT6=
EXTT7=
EXTT8=
EXTT9=
EXTT10=
EXTT11=
PLAYORDER=
